<mxfile host="app.diagrams.net" modified="2021-08-30T20:28:52.494Z" agent="5.0 (Windows NT 10.0; Win64; x64) AppleWebKit/537.36 (KHTML, like Gecko) Chrome/92.0.4515.159 Safari/537.36" etag="1qJam4BZypyAuJCpdu3T" version="15.0.3" type="github" pages="2">
  <diagram id="e4UuE7omMv5IEnxmC0gi" name="Page-1">
    <mxGraphModel dx="723" dy="386" grid="1" gridSize="10" guides="1" tooltips="1" connect="1" arrows="1" fold="1" page="1" pageScale="1" pageWidth="850" pageHeight="1100" math="0" shadow="0">
      <root>
        <mxCell id="0" />
        <mxCell id="1" parent="0" />
        <mxCell id="pGTws44KyTWBOTCNOdKS-6" value="Admin" style="shape=umlLifeline;participant=umlActor;perimeter=lifelinePerimeter;whiteSpace=wrap;html=1;container=1;collapsible=0;recursiveResize=0;verticalAlign=top;spacingTop=36;outlineConnect=0;" vertex="1" parent="1">
          <mxGeometry x="90" y="130" width="20" height="450" as="geometry" />
        </mxCell>
        <mxCell id="pGTws44KyTWBOTCNOdKS-7" value="View Dashboard" style="shape=umlLifeline;participant=umlBoundary;perimeter=lifelinePerimeter;whiteSpace=wrap;html=1;container=1;collapsible=0;recursiveResize=0;verticalAlign=top;spacingTop=36;outlineConnect=0;" vertex="1" parent="1">
          <mxGeometry x="200" y="130" width="50" height="450" as="geometry" />
        </mxCell>
        <mxCell id="pGTws44KyTWBOTCNOdKS-8" value="View Alternatif" style="shape=umlLifeline;participant=umlBoundary;perimeter=lifelinePerimeter;whiteSpace=wrap;html=1;container=1;collapsible=0;recursiveResize=0;verticalAlign=top;spacingTop=36;outlineConnect=0;" vertex="1" parent="1">
          <mxGeometry x="330" y="130" width="50" height="450" as="geometry" />
        </mxCell>
        <mxCell id="pGTws44KyTWBOTCNOdKS-9" value="Controller Alternatif" style="shape=umlLifeline;participant=umlControl;perimeter=lifelinePerimeter;whiteSpace=wrap;html=1;container=1;collapsible=0;recursiveResize=0;verticalAlign=top;spacingTop=36;outlineConnect=0;" vertex="1" parent="1">
          <mxGeometry x="480" y="130" width="40" height="450" as="geometry" />
        </mxCell>
        <mxCell id="pGTws44KyTWBOTCNOdKS-15" value="" style="html=1;points=[];perimeter=orthogonalPerimeter;" vertex="1" parent="pGTws44KyTWBOTCNOdKS-9">
          <mxGeometry x="15" y="110" width="10" height="80" as="geometry" />
        </mxCell>
        <mxCell id="pGTws44KyTWBOTCNOdKS-10" value="Model Alteratif" style="shape=umlLifeline;participant=umlEntity;perimeter=lifelinePerimeter;whiteSpace=wrap;html=1;container=1;collapsible=0;recursiveResize=0;verticalAlign=top;spacingTop=36;outlineConnect=0;" vertex="1" parent="1">
          <mxGeometry x="620" y="130" width="40" height="450" as="geometry" />
        </mxCell>
        <mxCell id="pGTws44KyTWBOTCNOdKS-17" value="" style="html=1;points=[];perimeter=orthogonalPerimeter;" vertex="1" parent="pGTws44KyTWBOTCNOdKS-10">
          <mxGeometry x="15" y="140" width="10" height="80" as="geometry" />
        </mxCell>
        <mxCell id="pGTws44KyTWBOTCNOdKS-13" value="" style="html=1;points=[];perimeter=orthogonalPerimeter;" vertex="1" parent="1">
          <mxGeometry x="220" y="218" width="10" height="80" as="geometry" />
        </mxCell>
        <mxCell id="pGTws44KyTWBOTCNOdKS-14" value="1: Buka menu alternatif()" style="html=1;verticalAlign=bottom;startArrow=oval;endArrow=block;startSize=8;exitX=0.626;exitY=0.362;exitDx=0;exitDy=0;exitPerimeter=0;" edge="1" target="pGTws44KyTWBOTCNOdKS-13" parent="1">
          <mxGeometry relative="1" as="geometry">
            <mxPoint x="102.52000000000021" y="227.60000000000002" as="sourcePoint" />
          </mxGeometry>
        </mxCell>
        <mxCell id="pGTws44KyTWBOTCNOdKS-16" value="1.1: Menampilkan halaman alteratif()" style="html=1;verticalAlign=bottom;startArrow=oval;endArrow=block;startSize=8;exitX=1.076;exitY=0.404;exitDx=0;exitDy=0;exitPerimeter=0;" edge="1" target="pGTws44KyTWBOTCNOdKS-15" parent="1" source="pGTws44KyTWBOTCNOdKS-13">
          <mxGeometry relative="1" as="geometry">
            <mxPoint x="435" y="240" as="sourcePoint" />
          </mxGeometry>
        </mxCell>
        <mxCell id="pGTws44KyTWBOTCNOdKS-18" value="1.2: ambil data alternatif()" style="html=1;verticalAlign=bottom;startArrow=oval;endArrow=block;startSize=8;exitX=1.106;exitY=0.409;exitDx=0;exitDy=0;exitPerimeter=0;" edge="1" target="pGTws44KyTWBOTCNOdKS-17" parent="1" source="pGTws44KyTWBOTCNOdKS-15">
          <mxGeometry x="0.1469" y="13" relative="1" as="geometry">
            <mxPoint x="575" y="270" as="sourcePoint" />
            <mxPoint as="offset" />
          </mxGeometry>
        </mxCell>
        <mxCell id="pGTws44KyTWBOTCNOdKS-19" value="data alternatif" style="html=1;verticalAlign=bottom;endArrow=open;dashed=1;endSize=8;entryX=1;entryY=0.875;entryDx=0;entryDy=0;entryPerimeter=0;" edge="1" parent="1" target="pGTws44KyTWBOTCNOdKS-15">
          <mxGeometry relative="1" as="geometry">
            <mxPoint x="640" y="310" as="sourcePoint" />
            <mxPoint x="510" y="310" as="targetPoint" />
          </mxGeometry>
        </mxCell>
        <mxCell id="pGTws44KyTWBOTCNOdKS-22" value="1.3: view halaman mahasiswa" style="html=1;verticalAlign=bottom;endArrow=block;" edge="1" parent="1">
          <mxGeometry width="80" relative="1" as="geometry">
            <mxPoint x="500" y="310" as="sourcePoint" />
            <mxPoint x="355" y="310" as="targetPoint" />
          </mxGeometry>
        </mxCell>
        <mxCell id="pGTws44KyTWBOTCNOdKS-24" value="" style="html=1;points=[];perimeter=orthogonalPerimeter;" vertex="1" parent="1">
          <mxGeometry x="350" y="340" width="10" height="100" as="geometry" />
        </mxCell>
        <mxCell id="pGTws44KyTWBOTCNOdKS-25" value="2: Update data alternatif()" style="html=1;verticalAlign=bottom;startArrow=oval;endArrow=block;startSize=8;" edge="1" parent="1">
          <mxGeometry relative="1" as="geometry">
            <mxPoint x="99.66666666666663" y="348" as="sourcePoint" />
            <mxPoint x="350" y="348" as="targetPoint" />
          </mxGeometry>
        </mxCell>
        <mxCell id="pGTws44KyTWBOTCNOdKS-26" value="" style="html=1;points=[];perimeter=orthogonalPerimeter;" vertex="1" parent="1">
          <mxGeometry x="495" y="360" width="10" height="80" as="geometry" />
        </mxCell>
        <mxCell id="pGTws44KyTWBOTCNOdKS-27" value="2.1: get data alternatif()" style="html=1;verticalAlign=bottom;startArrow=oval;endArrow=block;startSize=8;" edge="1" target="pGTws44KyTWBOTCNOdKS-26" parent="1">
          <mxGeometry relative="1" as="geometry">
            <mxPoint x="360" y="360" as="sourcePoint" />
          </mxGeometry>
        </mxCell>
        <mxCell id="pGTws44KyTWBOTCNOdKS-28" value="" style="html=1;points=[];perimeter=orthogonalPerimeter;" vertex="1" parent="1">
          <mxGeometry x="637" y="380" width="10" height="80" as="geometry" />
        </mxCell>
        <mxCell id="pGTws44KyTWBOTCNOdKS-29" value="2.2: Update data alternati()" style="html=1;verticalAlign=bottom;startArrow=oval;endArrow=block;startSize=8;" edge="1" target="pGTws44KyTWBOTCNOdKS-28" parent="1">
          <mxGeometry relative="1" as="geometry">
            <mxPoint x="510" y="380" as="sourcePoint" />
          </mxGeometry>
        </mxCell>
        <mxCell id="pGTws44KyTWBOTCNOdKS-30" value="data alternatif" style="html=1;verticalAlign=bottom;endArrow=open;dashed=1;endSize=8;entryX=0.9;entryY=0.766;entryDx=0;entryDy=0;entryPerimeter=0;" edge="1" parent="1" target="pGTws44KyTWBOTCNOdKS-26">
          <mxGeometry relative="1" as="geometry">
            <mxPoint x="637" y="420" as="sourcePoint" />
            <mxPoint x="557" y="420" as="targetPoint" />
          </mxGeometry>
        </mxCell>
        <mxCell id="pGTws44KyTWBOTCNOdKS-31" value="2.3: view daftar alternatif" style="html=1;verticalAlign=bottom;endArrow=block;" edge="1" parent="1">
          <mxGeometry width="80" relative="1" as="geometry">
            <mxPoint x="495" y="422" as="sourcePoint" />
            <mxPoint x="360" y="422" as="targetPoint" />
          </mxGeometry>
        </mxCell>
        <mxCell id="pGTws44KyTWBOTCNOdKS-32" value="" style="html=1;points=[];perimeter=orthogonalPerimeter;" vertex="1" parent="1">
          <mxGeometry x="349" y="459" width="10" height="100" as="geometry" />
        </mxCell>
        <mxCell id="pGTws44KyTWBOTCNOdKS-33" value="3: Delete data alternatif()" style="html=1;verticalAlign=bottom;startArrow=oval;endArrow=block;startSize=8;" edge="1" parent="1">
          <mxGeometry relative="1" as="geometry">
            <mxPoint x="99.66666666666663" y="467" as="sourcePoint" />
            <mxPoint x="350" y="467" as="targetPoint" />
          </mxGeometry>
        </mxCell>
        <mxCell id="pGTws44KyTWBOTCNOdKS-34" value="" style="html=1;points=[];perimeter=orthogonalPerimeter;" vertex="1" parent="1">
          <mxGeometry x="494" y="472" width="10" height="80" as="geometry" />
        </mxCell>
        <mxCell id="pGTws44KyTWBOTCNOdKS-35" value="3.1: get data alternatif()" style="html=1;verticalAlign=bottom;startArrow=oval;endArrow=block;startSize=8;" edge="1" parent="1" target="pGTws44KyTWBOTCNOdKS-34">
          <mxGeometry relative="1" as="geometry">
            <mxPoint x="359" y="472" as="sourcePoint" />
          </mxGeometry>
        </mxCell>
        <mxCell id="pGTws44KyTWBOTCNOdKS-36" value="" style="html=1;points=[];perimeter=orthogonalPerimeter;" vertex="1" parent="1">
          <mxGeometry x="636" y="492" width="10" height="80" as="geometry" />
        </mxCell>
        <mxCell id="pGTws44KyTWBOTCNOdKS-37" value="3.2: Delete data alternati()" style="html=1;verticalAlign=bottom;startArrow=oval;endArrow=block;startSize=8;" edge="1" parent="1" target="pGTws44KyTWBOTCNOdKS-36">
          <mxGeometry relative="1" as="geometry">
            <mxPoint x="509" y="492" as="sourcePoint" />
          </mxGeometry>
        </mxCell>
        <mxCell id="pGTws44KyTWBOTCNOdKS-38" value="data alternatif" style="html=1;verticalAlign=bottom;endArrow=open;dashed=1;endSize=8;entryX=0.9;entryY=0.766;entryDx=0;entryDy=0;entryPerimeter=0;" edge="1" parent="1">
          <mxGeometry relative="1" as="geometry">
            <mxPoint x="636" y="539" as="sourcePoint" />
            <mxPoint x="503" y="540.2800000000001" as="targetPoint" />
          </mxGeometry>
        </mxCell>
        <mxCell id="pGTws44KyTWBOTCNOdKS-39" value="3.3: view daftar alternatif" style="html=1;verticalAlign=bottom;endArrow=block;" edge="1" parent="1" target="pGTws44KyTWBOTCNOdKS-32">
          <mxGeometry width="80" relative="1" as="geometry">
            <mxPoint x="494" y="542" as="sourcePoint" />
            <mxPoint x="574" y="542" as="targetPoint" />
          </mxGeometry>
        </mxCell>
      </root>
    </mxGraphModel>
  </diagram>
  <diagram id="ajcWgXkxS5kciSXr_NFk" name="Page-2">
    <mxGraphModel dx="868" dy="463" grid="1" gridSize="10" guides="1" tooltips="1" connect="1" arrows="1" fold="1" page="1" pageScale="1" pageWidth="850" pageHeight="1100" math="0" shadow="0">
      <root>
        <mxCell id="YvmiJLuR5qaNtFDUDTVb-0" />
        <mxCell id="YvmiJLuR5qaNtFDUDTVb-1" parent="YvmiJLuR5qaNtFDUDTVb-0" />
        <mxCell id="YvmiJLuR5qaNtFDUDTVb-2" value="" style="shape=umlLifeline;participant=umlActor;perimeter=lifelinePerimeter;whiteSpace=wrap;html=1;container=1;collapsible=0;recursiveResize=0;verticalAlign=top;spacingTop=36;outlineConnect=0;" vertex="1" parent="YvmiJLuR5qaNtFDUDTVb-1">
          <mxGeometry x="150" y="150" width="20" height="300" as="geometry" />
        </mxCell>
        <mxCell id="YvmiJLuR5qaNtFDUDTVb-3" value="" style="shape=umlLifeline;participant=umlBoundary;perimeter=lifelinePerimeter;whiteSpace=wrap;html=1;container=1;collapsible=0;recursiveResize=0;verticalAlign=top;spacingTop=36;outlineConnect=0;" vertex="1" parent="YvmiJLuR5qaNtFDUDTVb-1">
          <mxGeometry x="290" y="150" width="50" height="300" as="geometry" />
        </mxCell>
        <mxCell id="YvmiJLuR5qaNtFDUDTVb-4" value="" style="shape=umlLifeline;participant=umlEntity;perimeter=lifelinePerimeter;whiteSpace=wrap;html=1;container=1;collapsible=0;recursiveResize=0;verticalAlign=top;spacingTop=36;outlineConnect=0;" vertex="1" parent="YvmiJLuR5qaNtFDUDTVb-1">
          <mxGeometry x="540" y="150" width="40" height="300" as="geometry" />
        </mxCell>
        <mxCell id="YvmiJLuR5qaNtFDUDTVb-5" value="" style="shape=umlLifeline;participant=umlControl;perimeter=lifelinePerimeter;whiteSpace=wrap;html=1;container=1;collapsible=0;recursiveResize=0;verticalAlign=top;spacingTop=36;outlineConnect=0;" vertex="1" parent="YvmiJLuR5qaNtFDUDTVb-1">
          <mxGeometry x="430" y="150" width="40" height="300" as="geometry" />
        </mxCell>
      </root>
    </mxGraphModel>
  </diagram>
</mxfile>
